#!OML:ASF H:\GeneralSubjects\Female5\Project 1\Capture day 1\Session 1\Female5.ASF
:FULLY-SPECIFIED
:DEGREES
241
root 3.22074 16.5787 2.68321 -168.412 -27.5432 -178.022
lowerback 2.75324 3.95292 1.46742
upperback -14.3556 3.92493 -1.99247
thorax -17.4248 0.834862 -3.58038
lowerneck -17.2073 9.02221 11.4154
upperneck 35.4525 11.6508 -9.90894
head 17.2489 4.25123 -4.30788
rclavicle -8.54774e-015 3.97569e-015
rhumerus -47.457 -7.49429 -11.3354
rradius 30.4279
rwrist -37.5857
rhand -43.9874 -28.5552
rfingers 7.12502
rthumb -16.809 -57.8476
lclavicle -8.54774e-015 3.97569e-015
lhumerus -51.7224 23.6466 9.97014
lradius 31.5825
lwrist 5.82456
lhand -51.3237 62.6562
lfingers 7.12502
lthumb -23.8591 -91.1944
rfemur 2.71849 36.5595 25.6615
rtibia -6.57339
rfoot -43.6055 -33.5722
rtoes 14.8592
lfemur 1.11929 -34.897 -22.7746
ltibia -1.43088
lfoot -48.4633 -2.3954
ltoes -7.89786
242
root 3.23255 16.5706 2.69682 -168.702 -27.3376 -178.062
lowerback 3.07168 4.00901 1.40162
upperback -14.2453 4.03541 -1.97665
thorax -17.4929 0.908725 -3.56554
lowerneck -16.8606 8.82014 10.9817
upperneck 35.138 11.3397 -9.4406
head 16.855 4.15675 -4.06764
rclavicle 5.30755e-014 -1.66979e-014
rhumerus -47.5756 -7.88083 -12.8636
rradius 30.1815
rwrist -36.446
rhand -44.2286 -27.5552
rfingers 7.12502
rthumb -17.0413 -56.8277
lclavicle 5.30755e-014 -1.66979e-014
lhumerus -52.1757 23.503 11.205
lradius 31.7406
lwrist 4.86641
lhand -50.9564 64.9271
lfingers 7.12502
lthumb -23.5068 -93.5109
rfemur 2.7896 36.7887 25.7109
rtibia -6.26634
rfoot -43.1539 -34.2581
rtoes 13.2201
lfemur 1.39925 -34.4874 -23.0067
ltibia -1.29079
lfoot -48.1936 -2.68121
ltoes -7.8221
243
root 3.24438 16.5592 2.7119 -169.064 -27.1888 -177.981
lowerback 3.38312 4.01835 1.41243
upperback -14.0462 4.1183 -1.89358
thorax -17.441 0.978645 -3.50898
lowerneck -17.2378 8.82964 10.8518
upperneck 35.1849 11.2883 -9.15162
head 16.925 4.15873 -3.91271
rclavicle -5.22804e-014 -3.4191e-014
rhumerus -47.49 -8.91804 -14.1648
rradius 29.7372
rwrist -34.5119
rhand -44.2167 -26.6022
rfingers 7.12502
rthumb -17.0298 -55.8757
lclavicle -5.22804e-014 -3.4191e-014
lhumerus -52.5921 24.0364 12.1361
lradius 31.503
lwrist 3.0321
lhand -50.3893 65.5605
lfingers 7.12502
lthumb -22.9627 -94.2129
rfemur 2.91487 36.9838 25.9226
rtibia -5.94064
rfoot -43.0743 -34.5387
rtoes 12.278
lfemur 1.67496 -33.9753 -23.0848
ltibia -1.22456
lfoot -47.7334 -2.58255
ltoes -7.65004
244
root 3.25542 16.5487 2.73027 -169.398 -27.0866 -177.838
lowerback 3.61106 4.0227 1.55285
upperback -13.8448 4.20311 -1.83659
thorax -17.3175 1.03069 -3.54755
lowerneck -17.3282 8.89123 11.0826
upperneck 34.9819 11.3046 -9.11722
head 16.8598 4.22029 -3.91457
rclavicle 1.18277e-013 5.64548e-014
rhumerus -47.3672 -10.0997 -15.57
rradius 29.2564
rwrist -32.4459
rhand -43.8114 -25.8428
rfingers 7.12502
rthumb -16.6396 -55.1495
lclavicle 1.18277e-013 5.64548e-014
lhumerus -52.7732 24.1581 13.458
lradius 31.1839
lwrist 1.11027
lhand -50.259 63.4783
lfingers 7.12502
lthumb -22.8377 -92.1462
rfemur 2.92712 36.1335 26.0479
rtibia -5.85647
rfoot -41.8378 -34.1823
rtoes 11.5993
lfemur 1.84737 -33.6655 -23.0333
ltibia -1.10617
lfoot -47.5773 -2.8998
ltoes -6.95097
245
root 3.26786 16.5391 2.75059 -169.752 -26.9777 -177.655
lowerback 3.88747 4.00389 1.70762
upperback -13.6587 4.25753 -1.7668
thorax -17.2496 1.0644 -3.57862
lowerneck -17.4056 9.01575 11.3188
upperneck 34.8641 11.3575 -8.92795
head 16.8282 4.31546 -3.84337
rclavicle -2.66371e-014 1.11319e-014
rhumerus -47.1453 -11.1 -17.3542
rradius 28.7875
rwrist -30.5585
rhand -43.6022 -25.1307
rfingers 7.12502
rthumb -16.4382 -54.4542
lclavicle -2.66371e-014 1.11319e-014
lhumerus -52.8494 23.8256 15.1208
lradius 30.951
lwrist -0.228234
lhand -50.3285 62.6726
lfingers 7.12502
lthumb -22.9044 -91.3322
rfemur 2.92179 35.197 26.1805
rtibia -5.8316
rfoot -40.4984 -33.7626
rtoes 10.9854
lfemur 2.06162 -33.7036 -22.957
ltibia -1.01462
lfoot -47.6616 -3.11849
ltoes -6.29306
246
root 3.28211 16.5289 2.76941 -170.064 -26.8825 -177.579
lowerback 4.19505 3.9497 1.7235
upperback -13.5014 4.23955 -1.69149
thorax -17.2579 1.07763 -3.51762
lowerneck -17.4091 9.13545 11.6669
upperneck 34.8591 11.3701 -8.76829
head 16.8455 4.39822 -3.82315
rclavicle -3.63776e-014 3.97569e-015
rhumerus -46.8847 -11.408 -19.6487
rradius 28.5544
rwrist -29.4374
rhand -43.747 -24.4343
rfingers 7.12502
rthumb -16.5776 -53.7463
lclavicle -3.63776e-014 3.97569e-015
lhumerus -53.0633 23.756 16.5759
lradius 30.7956
lwrist -1.51083
lhand -50.641 63.5575
lfingers 7.12502
lthumb -23.2042 -92.1797
rfemur 2.89634 34.1241 26.2076
rtibia -5.75603
rfoot -39.083 -33.4971
rtoes 10.0571
lfemur 2.2812 -33.5941 -23.0003
ltibia -0.938748
lfoot -47.5737 -3.07378
ltoes -6.40341
